<svg xmlns="http://www.w3.org/2000/svg" xmlns:xlink="http://www.w3.org/1999/xlink" width="378" zoomAndPan="magnify" viewBox="0 0 283.5 283.500005" height="378" preserveAspectRatio="xMidYMid meet" version="1.2"><defs><clipPath id="340dbd6300"><path d="M 52.085938 155 L 231 155 L 231 257.34375 L 52.085938 257.34375 Z M 52.085938 155 "/></clipPath><clipPath id="042ca80400"><path d="M 52.085938 148 L 231 148 L 231 257.34375 L 52.085938 257.34375 Z M 52.085938 148 "/></clipPath><clipPath id="f52f58ee14"><path d="M 90 28.300781 L 193 28.300781 L 193 82 L 90 82 Z M 90 28.300781 "/></clipPath></defs><g id="e639a875e4"><path style=" stroke:none;fill-rule:evenodd;fill:#703827;fill-opacity:1;" d="M 141.839844 66.191406 C 186.882812 66.191406 223.398438 102.707031 223.398438 147.75 C 223.398438 152.394531 223.003906 156.945312 222.257812 161.375 C 221.605469 161.933594 220.992188 162.574219 220.378906 163.335938 C 219.207031 164.800781 218.054688 166.71875 217.007812 168.21875 C 215.960938 169.722656 215.019531 170.808594 214.058594 171.660156 C 213.097656 172.511719 212.117188 173.128906 211.09375 173.433594 C 210.070312 173.734375 209.007812 173.722656 207.101562 173.113281 C 205.199219 172.503906 202.453125 171.300781 200.140625 171.054688 C 197.828125 170.8125 195.941406 171.523438 194.132812 172.644531 C 192.324219 173.765625 190.589844 175.292969 188.71875 176.488281 C 186.847656 177.679688 184.84375 178.535156 182.539062 178.488281 C 180.238281 178.441406 177.636719 177.496094 175.664062 176.648438 C 173.691406 175.800781 172.347656 175.050781 170.28125 175.175781 C 168.21875 175.296875 165.4375 176.292969 162.75 177.429688 C 160.0625 178.566406 157.46875 179.84375 155.214844 180.191406 C 152.957031 180.539062 151.039062 179.957031 149.21875 179.074219 C 147.394531 178.191406 145.675781 177.003906 144.375 176.523438 C 143.078125 176.039062 142.203125 176.261719 140.410156 176.894531 C 138.617188 177.53125 135.90625 178.574219 133.671875 179.34375 C 131.4375 180.117188 129.675781 180.617188 127.875 180.609375 C 126.074219 180.605469 124.234375 180.089844 122.433594 179.207031 C 120.636719 178.320312 118.878906 177.066406 117.113281 176.1875 C 115.347656 175.308594 113.570312 174.804688 111.75 174.875 C 109.933594 174.949219 108.070312 175.59375 106.226562 176.449219 C 104.382812 177.308594 102.550781 178.378906 101.007812 178.75 C 99.460938 179.121094 98.199219 178.792969 96.464844 177.9375 C 94.734375 177.082031 92.527344 175.699219 90.90625 174.683594 C 89.285156 173.667969 88.25 173.019531 87.210938 172.332031 C 86.171875 171.644531 85.128906 170.914062 83.785156 170.6875 C 82.441406 170.457031 80.792969 170.730469 78.953125 171.367188 C 77.113281 172 75.078125 173 73.625 173.339844 C 72.175781 173.675781 71.304688 173.355469 69.871094 172.109375 C 68.4375 170.863281 66.4375 168.691406 64.902344 166.777344 C 63.636719 165.199219 62.6875 163.796875 61.636719 162.609375 C 60.75 157.792969 60.28125 152.824219 60.28125 147.75 C 60.28125 102.707031 96.796875 66.191406 141.839844 66.191406 Z M 141.839844 66.191406 "/><path style=" stroke:none;fill-rule:evenodd;fill:#451904;fill-opacity:1;" d="M 93.214844 125.859375 C 93.890625 125.285156 94.824219 124.828125 95.867188 124.75 C 96.910156 124.667969 98.0625 124.957031 99.097656 125.703125 C 100.128906 126.449219 101.039062 127.644531 102.214844 129.019531 C 103.386719 130.390625 104.824219 131.9375 106.570312 133.332031 C 108.316406 134.730469 110.371094 135.980469 112.371094 136.816406 C 114.371094 137.648438 116.320312 138.074219 118.195312 138.398438 C 120.070312 138.726562 121.871094 138.953125 123.179688 139.367188 C 124.488281 139.78125 125.304688 140.378906 125.6875 141.101562 C 126.070312 141.824219 126.023438 142.675781 125.808594 143.589844 C 125.597656 144.503906 125.21875 145.480469 124.550781 146.246094 C 123.878906 147.015625 122.914062 147.574219 121.25 147.820312 C 119.589844 148.066406 117.230469 148.007812 114.929688 147.65625 C 112.625 147.304688 110.378906 146.664062 108.207031 145.738281 C 106.03125 144.8125 103.933594 143.601562 101.976562 142.167969 C 100.019531 140.730469 98.207031 139.070312 96.558594 137.214844 C 94.910156 135.355469 93.429688 133.300781 92.648438 131.707031 C 91.867188 130.109375 91.785156 128.972656 91.953125 128.054688 C 92.121094 127.136719 92.539062 126.4375 93.214844 125.859375 Z M 131.035156 133.007812 C 131.960938 132.777344 133.085938 132.734375 134.207031 133.511719 C 135.328125 134.289062 136.445312 135.886719 137.632812 138.078125 C 138.824219 140.273438 140.082031 143.066406 140.945312 145.480469 C 141.808594 147.898438 142.273438 149.933594 142.699219 152 C 143.125 154.0625 143.511719 156.15625 143.757812 157.824219 C 144.007812 159.492188 144.117188 160.734375 143.992188 161.832031 C 143.871094 162.929688 143.511719 163.882812 142.984375 164.609375 C 142.460938 165.335938 141.773438 165.835938 140.949219 166.117188 C 140.128906 166.398438 139.175781 166.457031 138.328125 166.285156 C 137.480469 166.113281 136.742188 165.710938 136.144531 165.128906 C 135.550781 164.546875 135.101562 163.789062 134.8125 162.886719 C 134.527344 161.984375 134.402344 160.933594 134.078125 159.113281 C 133.757812 157.289062 133.238281 154.695312 132.558594 152.179688 C 131.882812 149.660156 131.046875 147.226562 130.230469 145.195312 C 129.414062 143.167969 128.621094 141.542969 128.121094 140.351562 C 127.617188 139.15625 127.410156 138.390625 127.328125 137.714844 C 127.242188 137.039062 127.285156 136.453125 127.527344 135.863281 C 127.769531 135.269531 128.214844 134.667969 128.796875 134.160156 C 129.382812 133.652344 130.109375 133.234375 131.035156 133.007812 Z M 124.535156 90.917969 C 125.238281 90.503906 126.15625 90.242188 127.113281 90.339844 C 128.074219 90.433594 129.070312 90.882812 129.886719 91.726562 C 130.699219 92.566406 131.332031 93.796875 132.171875 95.230469 C 133.011719 96.664062 134.0625 98.292969 135.414062 99.839844 C 136.769531 101.386719 138.429688 102.851562 140.105469 103.929688 C 141.78125 105.011719 143.476562 105.710938 145.117188 106.308594 C 146.761719 106.90625 148.355469 107.402344 149.476562 107.988281 C 150.59375 108.574219 151.234375 109.246094 151.464844 109.964844 C 151.695312 110.683594 151.515625 111.445312 151.171875 112.238281 C 150.832031 113.027344 150.332031 113.851562 149.601562 114.4375 C 148.871094 115.027344 147.90625 115.375 146.363281 115.328125 C 144.820312 115.285156 142.695312 114.847656 140.664062 114.15625 C 138.636719 113.464844 136.707031 112.523438 134.890625 111.332031 C 133.074219 110.144531 131.367188 108.710938 129.828125 107.09375 C 128.289062 105.476562 126.917969 103.683594 125.726562 101.734375 C 124.535156 99.785156 123.527344 97.6875 123.078125 96.117188 C 122.628906 94.542969 122.738281 93.5 123.039062 92.695312 C 123.339844 91.894531 123.832031 91.328125 124.535156 90.917969 Z M 156.585938 106.203125 C 156.695312 105.394531 157.058594 104.511719 157.722656 103.816406 C 158.390625 103.125 159.363281 102.617188 160.527344 102.496094 C 161.691406 102.375 163.050781 102.640625 164.695312 102.867188 C 166.339844 103.089844 168.269531 103.273438 170.324219 103.164062 C 172.378906 103.054688 174.550781 102.65625 176.4375 102.003906 C 178.324219 101.355469 179.917969 100.457031 181.40625 99.53125 C 182.890625 98.609375 184.265625 97.664062 185.417969 97.148438 C 186.570312 96.628906 187.496094 96.539062 188.203125 96.804688 C 188.910156 97.066406 189.394531 97.679688 189.808594 98.4375 C 190.21875 99.195312 190.558594 100.097656 190.566406 101.035156 C 190.578125 101.972656 190.253906 102.945312 189.265625 104.128906 C 188.277344 105.316406 186.621094 106.71875 184.824219 107.882812 C 183.027344 109.050781 181.09375 109.984375 179.035156 110.679688 C 176.976562 111.375 174.792969 111.828125 172.574219 112.039062 C 170.351562 112.25 168.089844 112.21875 165.824219 111.953125 C 163.558594 111.683594 161.285156 111.179688 159.769531 110.5625 C 158.257812 109.945312 157.503906 109.214844 157.058594 108.480469 C 156.613281 107.746094 156.472656 107.011719 156.585938 106.203125 Z M 76.058594 91.738281 C 75.804688 90.820312 75.730469 89.699219 76.476562 88.554688 C 77.21875 87.414062 78.78125 86.25 80.941406 85 C 83.101562 83.75 85.859375 82.410156 88.25 81.480469 C 90.636719 80.546875 92.660156 80.023438 94.710938 79.539062 C 96.765625 79.054688 98.847656 78.609375 100.507812 78.316406 C 102.164062 78.019531 103.402344 77.875 104.503906 77.96875 C 105.605469 78.058594 106.570312 78.390625 107.3125 78.894531 C 108.050781 79.398438 108.570312 80.074219 108.875 80.886719 C 109.175781 81.699219 109.265625 82.652344 109.117188 83.503906 C 108.96875 84.355469 108.585938 85.105469 108.023438 85.71875 C 107.460938 86.328125 106.714844 86.800781 105.820312 87.113281 C 104.925781 87.425781 103.878906 87.582031 102.070312 87.953125 C 100.257812 88.328125 97.675781 88.921875 95.179688 89.671875 C 92.683594 90.421875 90.273438 91.328125 88.265625 92.199219 C 86.261719 93.070312 84.664062 93.910156 83.484375 94.445312 C 82.304688 94.980469 81.542969 95.210938 80.871094 95.316406 C 80.199219 95.417969 79.613281 95.390625 79.011719 95.164062 C 78.414062 94.941406 77.800781 94.515625 77.277344 93.945312 C 76.75 93.375 76.316406 92.660156 76.058594 91.738281 Z M 64.289062 120.675781 C 63.707031 119.921875 63.21875 118.910156 63.476562 117.570312 C 63.738281 116.230469 64.75 114.566406 66.28125 112.597656 C 67.8125 110.625 69.863281 108.347656 71.726562 106.589844 C 73.59375 104.828125 75.269531 103.582031 76.988281 102.359375 C 78.707031 101.140625 80.46875 99.945312 81.898438 99.050781 C 83.324219 98.152344 84.417969 97.550781 85.472656 97.222656 C 86.527344 96.894531 87.546875 96.839844 88.421875 97.03125 C 89.296875 97.21875 90.03125 97.648438 90.617188 98.285156 C 91.207031 98.925781 91.644531 99.777344 91.828125 100.621094 C 92.011719 101.464844 91.9375 102.304688 91.644531 103.082031 C 91.355469 103.863281 90.839844 104.578125 90.128906 105.207031 C 89.417969 105.832031 88.507812 106.367188 86.96875 107.394531 C 85.429688 108.421875 83.261719 109.941406 81.230469 111.574219 C 79.199219 113.207031 77.304688 114.953125 75.773438 116.515625 C 74.246094 118.078125 73.078125 119.457031 72.1875 120.394531 C 71.292969 121.335938 70.675781 121.832031 70.09375 122.179688 C 69.507812 122.527344 68.953125 122.726562 68.3125 122.742188 C 67.671875 122.757812 66.945312 122.59375 66.246094 122.261719 C 65.542969 121.929688 64.871094 121.433594 64.289062 120.675781 Z M 64.179688 164.371094 C 63.324219 164.121094 62.4375 163.589844 61.796875 162.757812 C 61.160156 161.929688 60.773438 160.804688 60.832031 159.53125 C 60.890625 158.257812 61.398438 156.839844 61.90625 155.109375 C 62.414062 153.375 62.921875 151.328125 63.140625 149.101562 C 63.355469 146.878906 63.277344 144.476562 62.882812 142.34375 C 62.492188 140.210938 61.78125 138.347656 61.03125 136.601562 C 60.277344 134.851562 59.484375 133.21875 59.117188 131.894531 C 58.746094 130.574219 58.800781 129.5625 59.199219 128.847656 C 59.59375 128.128906 60.332031 127.707031 61.214844 127.386719 C 62.097656 127.066406 63.121094 126.847656 64.128906 126.988281 C 65.140625 127.132812 66.132812 127.636719 67.25 128.890625 C 68.363281 130.148438 69.601562 132.15625 70.566406 134.277344 C 71.53125 136.398438 72.222656 138.628906 72.632812 140.957031 C 73.046875 143.28125 73.179688 145.703125 73.046875 148.125 C 72.914062 150.546875 72.515625 152.972656 71.859375 155.367188 C 71.203125 157.761719 70.292969 160.125 69.382812 161.652344 C 68.472656 163.179688 67.566406 163.871094 66.703125 164.230469 C 65.84375 164.59375 65.03125 164.621094 64.179688 164.371094 Z M 80.476562 149.117188 C 79.539062 148.953125 78.492188 148.539062 77.777344 147.375 C 77.066406 146.214844 76.6875 144.304688 76.484375 141.816406 C 76.28125 139.328125 76.253906 136.265625 76.4375 133.707031 C 76.621094 131.148438 77.015625 129.097656 77.460938 127.035156 C 77.902344 124.972656 78.394531 122.902344 78.839844 121.277344 C 79.285156 119.648438 79.683594 118.46875 80.242188 117.515625 C 80.796875 116.5625 81.511719 115.832031 82.285156 115.378906 C 83.058594 114.925781 83.890625 114.746094 84.753906 114.820312 C 85.617188 114.894531 86.515625 115.226562 87.222656 115.722656 C 87.925781 116.222656 88.441406 116.890625 88.753906 117.660156 C 89.0625 118.433594 89.167969 119.308594 89.066406 120.25 C 88.964844 121.195312 88.65625 122.203125 88.21875 124 C 87.777344 125.796875 87.207031 128.382812 86.8125 130.960938 C 86.417969 133.535156 86.203125 136.101562 86.128906 138.289062 C 86.058594 140.472656 86.128906 142.277344 86.109375 143.574219 C 86.085938 144.867188 85.96875 145.652344 85.769531 146.304688 C 85.574219 146.957031 85.300781 147.476562 84.839844 147.917969 C 84.378906 148.363281 83.730469 148.734375 82.988281 148.964844 C 82.25 149.195312 81.417969 149.28125 80.476562 149.117188 Z M 91.082031 153.292969 C 91.328125 152.648438 91.765625 151.960938 92.691406 151.613281 C 93.617188 151.265625 95.027344 151.261719 96.824219 151.457031 C 98.621094 151.65625 100.804688 152.058594 102.597656 152.539062 C 104.390625 153.023438 105.796875 153.585938 107.203125 154.183594 C 108.605469 154.78125 110.011719 155.417969 111.105469 155.957031 C 112.203125 156.496094 112.988281 156.941406 113.589844 157.46875 C 114.191406 157.996094 114.609375 158.605469 114.828125 159.21875 C 115.042969 159.828125 115.058594 160.445312 114.886719 161.050781 C 114.710938 161.65625 114.355469 162.246094 113.902344 162.679688 C 113.449219 163.113281 112.90625 163.386719 112.3125 163.503906 C 111.722656 163.617188 111.085938 163.574219 110.429688 163.371094 C 109.773438 163.167969 109.097656 162.8125 107.878906 162.25 C 106.664062 161.691406 104.902344 160.929688 103.125 160.296875 C 101.347656 159.660156 99.550781 159.15625 98.007812 158.800781 C 96.460938 158.449219 95.167969 158.253906 94.25 158.058594 C 93.332031 157.867188 92.792969 157.671875 92.355469 157.445312 C 91.917969 157.214844 91.585938 156.949219 91.335938 156.558594 C 91.082031 156.171875 90.90625 155.660156 90.84375 155.101562 C 90.785156 154.542969 90.835938 153.9375 91.082031 153.292969 Z M 184.664062 145.519531 C 185.410156 145.46875 186.289062 145.589844 187.050781 146.34375 C 187.8125 147.097656 188.460938 148.484375 189.082031 150.347656 C 189.703125 152.207031 190.300781 154.542969 190.640625 156.53125 C 190.980469 158.519531 191.0625 160.160156 191.113281 161.816406 C 191.160156 163.476562 191.175781 165.148438 191.140625 166.472656 C 191.105469 167.800781 191.019531 168.777344 190.773438 169.609375 C 190.53125 170.441406 190.121094 171.132812 189.617188 171.625 C 189.109375 172.117188 188.507812 172.410156 187.835938 172.515625 C 187.160156 172.617188 186.414062 172.535156 185.78125 172.285156 C 185.148438 172.039062 184.628906 171.625 184.25 171.09375 C 183.867188 170.5625 183.621094 169.914062 183.519531 169.175781 C 183.421875 168.4375 183.46875 167.609375 183.464844 166.152344 C 183.464844 164.699219 183.414062 162.617188 183.234375 160.574219 C 183.050781 158.535156 182.734375 156.535156 182.378906 154.851562 C 182.023438 153.167969 181.628906 151.804688 181.40625 150.8125 C 181.179688 149.816406 181.121094 149.195312 181.148438 148.660156 C 181.175781 148.125 181.289062 147.679688 181.558594 147.253906 C 181.828125 146.828125 182.25 146.421875 182.773438 146.109375 C 183.296875 145.792969 183.914062 145.570312 184.664062 145.519531 Z M 143.25 96.550781 C 142.917969 95.964844 142.675781 95.210938 142.988281 94.304688 C 143.304688 93.394531 144.175781 92.335938 145.4375 91.113281 C 146.699219 89.890625 148.355469 88.507812 149.828125 87.464844 C 151.304688 86.421875 152.597656 85.71875 153.917969 85.039062 C 155.234375 84.359375 156.582031 83.699219 157.667969 83.214844 C 158.75 82.730469 159.570312 82.421875 160.339844 82.296875 C 161.105469 82.171875 161.824219 82.238281 162.414062 82.453125 C 163.007812 82.671875 163.476562 83.042969 163.824219 83.546875 C 164.167969 84.050781 164.390625 84.6875 164.433594 85.292969 C 164.476562 85.902344 164.34375 86.480469 164.0625 86.996094 C 163.78125 87.507812 163.351562 87.957031 162.792969 88.324219 C 162.238281 88.691406 161.550781 88.972656 160.375 89.535156 C 159.199219 90.101562 157.539062 90.945312 155.960938 91.882812 C 154.382812 92.820312 152.890625 93.847656 151.667969 94.785156 C 150.445312 95.722656 149.496094 96.570312 148.78125 97.136719 C 148.066406 97.703125 147.585938 97.988281 147.144531 98.171875 C 146.703125 98.355469 146.296875 98.441406 145.847656 98.386719 C 145.402344 98.335938 144.910156 98.148438 144.453125 97.847656 C 144 97.546875 143.578125 97.132812 143.25 96.550781 Z M 97.546875 95.363281 C 97.789062 94.738281 98.21875 94.070312 99.117188 93.734375 C 100.015625 93.402344 101.390625 93.398438 103.136719 93.59375 C 104.882812 93.789062 107.003906 94.183594 108.746094 94.660156 C 110.488281 95.132812 111.851562 95.683594 113.21875 96.265625 C 114.582031 96.851562 115.945312 97.472656 117.011719 98 C 118.074219 98.527344 118.835938 98.960938 119.417969 99.476562 C 120.003906 99.988281 120.410156 100.582031 120.621094 101.175781 C 120.828125 101.773438 120.839844 102.371094 120.671875 102.957031 C 120.503906 103.546875 120.152344 104.121094 119.714844 104.542969 C 119.273438 104.960938 118.742188 105.226562 118.167969 105.339844 C 117.589844 105.449219 116.972656 105.402344 116.335938 105.207031 C 115.695312 105.007812 115.042969 104.65625 113.859375 104.109375 C 112.675781 103.5625 110.964844 102.820312 109.238281 102.199219 C 107.511719 101.578125 105.769531 101.082031 104.269531 100.734375 C 102.769531 100.390625 101.511719 100.195312 100.617188 100.003906 C 99.726562 99.816406 99.199219 99.625 98.777344 99.402344 C 98.351562 99.179688 98.03125 98.917969 97.785156 98.539062 C 97.542969 98.164062 97.375 97.664062 97.316406 97.121094 C 97.257812 96.578125 97.308594 95.992188 97.546875 95.363281 Z M 197.671875 101.609375 C 197.035156 101.730469 196.28125 101.683594 195.589844 101.355469 C 194.898438 101.027344 194.269531 100.425781 193.886719 99.578125 C 193.5 98.734375 193.355469 97.644531 193.109375 96.347656 C 192.863281 95.050781 192.511719 93.550781 191.910156 92.03125 C 191.308594 90.511719 190.457031 88.976562 189.492188 87.722656 C 188.527344 86.46875 187.445312 85.492188 186.375 84.609375 C 185.304688 83.722656 184.242188 82.925781 183.5625 82.1875 C 182.882812 81.453125 182.582031 80.777344 182.601562 80.179688 C 182.617188 79.582031 182.957031 79.058594 183.425781 78.558594 C 183.890625 78.054688 184.484375 77.570312 185.1875 77.328125 C 185.890625 77.085938 186.703125 77.082031 187.847656 77.523438 C 188.992188 77.96875 190.464844 78.863281 191.796875 79.921875 C 193.132812 80.976562 194.324219 82.199219 195.367188 83.574219 C 196.410156 84.949219 197.304688 86.476562 198.023438 88.09375 C 198.746094 89.714844 199.292969 91.425781 199.664062 93.199219 C 200.039062 94.972656 200.230469 96.8125 200.148438 98.109375 C 200.066406 99.40625 199.707031 100.15625 199.269531 100.675781 C 198.828125 101.199219 198.308594 101.488281 197.671875 101.609375 Z M 215.261719 104.320312 C 215.375 104.960938 215.3125 105.714844 214.976562 106.402344 C 214.640625 107.089844 214.03125 107.707031 213.179688 108.082031 C 212.328125 108.453125 211.234375 108.582031 209.9375 108.8125 C 208.636719 109.042969 207.132812 109.371094 205.605469 109.953125 C 204.078125 110.53125 202.53125 111.359375 201.261719 112.308594 C 199.996094 113.257812 199.003906 114.328125 198.105469 115.386719 C 197.203125 116.445312 196.390625 117.492188 195.648438 118.164062 C 194.902344 118.832031 194.222656 119.125 193.625 119.097656 C 193.027344 119.070312 192.511719 118.722656 192.015625 118.25 C 191.519531 117.777344 191.042969 117.179688 190.808594 116.472656 C 190.574219 115.765625 190.582031 114.949219 191.042969 113.8125 C 191.503906 112.675781 192.417969 111.214844 193.492188 109.898438 C 194.570312 108.578125 195.804688 107.402344 197.195312 106.378906 C 198.582031 105.355469 200.125 104.480469 201.753906 103.785156 C 203.382812 103.085938 205.097656 102.558594 206.878906 102.214844 C 208.660156 101.867188 210.5 101.695312 211.792969 101.796875 C 213.089844 101.898438 213.835938 102.265625 214.351562 102.714844 C 214.867188 103.160156 215.148438 103.683594 215.261719 104.320312 Z M 221.335938 141.507812 C 220.597656 141.640625 219.722656 141.574219 218.925781 141.1875 C 218.128906 140.800781 217.410156 140.09375 216.972656 139.109375 C 216.539062 138.125 216.382812 136.863281 216.113281 135.359375 C 215.84375 133.855469 215.453125 132.113281 214.777344 130.347656 C 214.097656 128.582031 213.132812 126.792969 212.027344 125.328125 C 210.921875 123.863281 209.683594 122.726562 208.453125 121.6875 C 207.222656 120.648438 206.007812 119.710938 205.226562 118.851562 C 204.449219 117.992188 204.109375 117.207031 204.136719 116.511719 C 204.164062 115.820312 204.566406 115.222656 205.109375 114.644531 C 205.65625 114.070312 206.347656 113.515625 207.167969 113.242188 C 207.984375 112.96875 208.925781 112.972656 210.246094 113.503906 C 211.5625 114.03125 213.257812 115.085938 214.789062 116.324219 C 216.320312 117.5625 217.6875 118.992188 218.878906 120.59375 C 220.070312 122.199219 221.085938 123.980469 221.902344 125.863281 C 222.71875 127.746094 223.332031 129.730469 223.742188 131.792969 C 224.152344 133.851562 224.355469 135.984375 224.246094 137.484375 C 224.132812 138.980469 223.707031 139.847656 223.195312 140.445312 C 222.679688 141.046875 222.074219 141.375 221.335938 141.507812 Z M 193.074219 139.097656 C 193.625 138.316406 194.449219 137.550781 195.808594 137.40625 C 197.164062 137.265625 199.050781 137.742188 201.382812 138.628906 C 203.71875 139.515625 206.496094 140.808594 208.726562 142.074219 C 210.957031 143.339844 212.640625 144.578125 214.3125 145.863281 C 215.980469 147.148438 217.640625 148.480469 218.917969 149.582031 C 220.195312 150.683594 221.089844 151.550781 221.710938 152.464844 C 222.335938 153.375 222.683594 154.335938 222.761719 155.226562 C 222.839844 156.121094 222.644531 156.949219 222.207031 157.695312 C 221.765625 158.445312 221.082031 159.113281 220.328125 159.535156 C 219.574219 159.960938 218.75 160.136719 217.921875 160.085938 C 217.089844 160.035156 216.253906 159.753906 215.449219 159.257812 C 214.640625 158.761719 213.863281 158.050781 212.429688 156.878906 C 210.992188 155.710938 208.90625 154.082031 206.746094 152.621094 C 204.589844 151.15625 202.367188 149.859375 200.425781 148.855469 C 198.480469 147.847656 196.820312 147.140625 195.660156 146.5625 C 194.503906 145.984375 193.84375 145.542969 193.339844 145.085938 C 192.835938 144.628906 192.484375 144.15625 192.28125 143.550781 C 192.078125 142.941406 192.023438 142.195312 192.132812 141.429688 C 192.246094 140.664062 192.523438 139.875 193.074219 139.09375 Z M 177.4375 156.527344 C 176.957031 157.1875 176.226562 157.796875 175.3125 158.097656 C 174.394531 158.398438 173.300781 158.390625 172.214844 157.949219 C 171.132812 157.507812 170.058594 156.636719 168.710938 155.667969 C 167.363281 154.695312 165.742188 153.625 163.878906 152.757812 C 162.015625 151.890625 159.90625 151.222656 157.9375 150.910156 C 155.96875 150.601562 154.136719 150.644531 152.390625 150.761719 C 150.644531 150.878906 148.984375 151.070312 147.726562 150.984375 C 146.464844 150.902344 145.609375 150.542969 145.105469 149.980469 C 144.605469 149.417969 144.464844 148.648438 144.457031 147.785156 C 144.449219 146.921875 144.574219 145.964844 145.003906 145.132812 C 145.4375 144.304688 146.179688 143.59375 147.609375 143.011719 C 149.039062 142.429688 151.160156 141.972656 153.292969 141.785156 C 155.425781 141.597656 157.574219 141.679688 159.71875 142.03125 C 161.859375 142.386719 164 143.011719 166.0625 143.867188 C 168.121094 144.722656 170.101562 145.8125 171.976562 147.113281 C 173.855469 148.414062 175.625 149.925781 176.671875 151.183594 C 177.71875 152.4375 178.039062 153.4375 178.089844 154.292969 C 178.136719 155.152344 177.914062 155.867188 177.4375 156.527344 Z M 195.726562 156.277344 C 196.324219 155.78125 197.132812 155.40625 198.019531 155.382812 C 198.90625 155.359375 199.871094 155.683594 200.710938 156.417969 C 201.550781 157.152344 202.269531 158.296875 203.199219 159.613281 C 204.128906 160.929688 205.277344 162.421875 206.691406 163.789062 C 208.105469 165.15625 209.785156 166.402344 211.441406 167.269531 C 213.097656 168.132812 214.726562 168.617188 216.296875 169.007812 L 216.417969 169.039062 C 215.601562 170.128906 214.835938 170.96875 214.058594 171.660156 C 213.097656 172.511719 212.117188 173.128906 211.09375 173.433594 C 210.070312 173.734375 209.007812 173.722656 207.101562 173.113281 C 205.730469 172.675781 203.925781 171.929688 202.160156 171.453125 C 200.664062 170.09375 199.289062 168.558594 198.046875 166.863281 C 196.734375 165.078125 195.574219 163.121094 194.984375 161.617188 C 194.394531 160.113281 194.375 159.0625 194.558594 158.226562 C 194.742188 157.394531 195.128906 156.773438 195.726562 156.277344 Z M 168.792969 161.660156 C 169.542969 161.609375 170.417969 161.730469 171.183594 162.484375 C 171.945312 163.238281 172.59375 164.625 173.214844 166.488281 C 173.835938 168.347656 174.433594 170.683594 174.773438 172.671875 C 175.007812 174.054688 175.121094 175.269531 175.183594 176.4375 C 173.460938 175.679688 172.171875 175.0625 170.28125 175.175781 C 169.390625 175.226562 168.363281 175.445312 167.269531 175.765625 C 167.082031 174.058594 166.808594 172.410156 166.511719 170.992188 C 166.15625 169.308594 165.761719 167.945312 165.535156 166.953125 C 165.308594 165.957031 165.253906 165.335938 165.28125 164.800781 C 165.308594 164.265625 165.421875 163.820312 165.6875 163.394531 C 165.957031 162.96875 166.382812 162.5625 166.90625 162.25 C 167.425781 161.933594 168.046875 161.710938 168.792969 161.660156 Z M 156.574219 157.757812 C 157.316406 158.15625 158.078125 158.792969 158.351562 159.964844 C 158.625 161.136719 158.414062 162.839844 157.894531 164.980469 C 157.375 167.121094 156.550781 169.695312 155.6875 171.785156 C 154.824219 173.878906 153.921875 175.488281 152.980469 177.089844 C 152.414062 178.054688 151.832031 179.015625 151.28125 179.894531 C 150.570312 179.683594 149.886719 179.402344 149.21875 179.074219 C 147.394531 178.191406 145.675781 177.003906 144.375 176.523438 C 144.015625 176.386719 143.6875 176.308594 143.359375 176.277344 C 144.199219 174.917969 145.28125 173.082031 146.234375 171.210938 C 147.277344 169.160156 148.171875 167.074219 148.839844 165.261719 C 149.503906 163.453125 149.945312 161.917969 150.324219 160.839844 C 150.699219 159.761719 151.015625 159.136719 151.363281 158.644531 C 151.707031 158.15625 152.082031 157.796875 152.589844 157.550781 C 153.097656 157.308594 153.746094 157.175781 154.429688 157.1875 C 155.113281 157.203125 155.832031 157.359375 156.574219 157.757812 Z M 121.359375 178.636719 C 121.652344 177.453125 121.898438 176.175781 122.042969 174.832031 C 122.277344 172.609375 122.21875 170.207031 121.84375 168.070312 C 121.46875 165.933594 120.773438 164.066406 120.035156 162.3125 C 119.300781 160.558594 118.519531 158.917969 118.160156 157.59375 C 117.800781 156.265625 117.867188 155.257812 118.269531 154.542969 C 118.671875 153.832031 119.414062 153.414062 120.296875 153.097656 C 121.183594 152.785156 122.207031 152.578125 123.21875 152.726562 C 124.226562 152.878906 125.214844 153.390625 126.320312 154.65625 C 127.425781 155.921875 128.644531 157.941406 129.589844 160.070312 C 130.539062 162.195312 131.210938 164.433594 131.601562 166.765625 C 131.996094 169.09375 132.109375 171.515625 131.957031 173.9375 C 131.824219 176.023438 131.496094 178.113281 130.972656 180.179688 C 129.890625 180.457031 128.890625 180.613281 127.875 180.609375 C 126.074219 180.605469 124.234375 180.089844 122.433594 179.207031 C 122.074219 179.027344 121.71875 178.835938 121.359375 178.636719 Z M 102.328125 177.210938 C 101.753906 177.875 100.929688 178.507812 99.671875 178.523438 C 98.417969 178.535156 96.726562 177.929688 94.664062 176.914062 C 94.445312 176.808594 94.222656 176.695312 93.996094 176.578125 C 92.90625 175.933594 91.816406 175.25 90.90625 174.683594 C 89.285156 173.667969 88.25 173.019531 87.210938 172.332031 C 87.070312 172.242188 86.933594 172.148438 86.792969 172.058594 C 85.535156 171.082031 84.480469 170.125 83.433594 169.148438 C 82.015625 167.824219 80.609375 166.457031 79.53125 165.335938 C 78.457031 164.214844 77.710938 163.339844 77.222656 162.449219 C 76.730469 161.554688 76.492188 160.648438 76.5 159.820312 C 76.503906 158.996094 76.757812 158.25 77.226562 157.605469 C 77.695312 156.957031 78.378906 156.402344 79.105469 156.078125 C 79.835938 155.757812 80.605469 155.664062 81.363281 155.785156 C 82.121094 155.90625 82.863281 156.234375 83.5625 156.761719 C 84.257812 157.289062 84.910156 158.007812 86.125 159.207031 C 87.335938 160.40625 89.113281 162.078125 90.964844 163.609375 C 92.816406 165.140625 94.742188 166.527344 96.4375 167.617188 C 98.128906 168.707031 99.59375 169.503906 100.605469 170.136719 C 101.621094 170.765625 102.183594 171.230469 102.605469 171.695312 C 103.03125 172.15625 103.308594 172.621094 103.445312 173.195312 C 103.578125 173.769531 103.5625 174.457031 103.394531 175.152344 C 103.226562 175.847656 102.902344 176.546875 102.328125 177.210938 Z M 91.066406 107.386719 C 91.695312 106.566406 92.621094 105.769531 94.097656 105.667969 C 95.574219 105.5625 97.601562 106.160156 100.097656 107.210938 C 102.59375 108.265625 105.554688 109.777344 107.921875 111.238281 C 110.292969 112.703125 112.070312 114.113281 113.832031 115.574219 C 115.589844 117.035156 117.339844 118.546875 118.679688 119.792969 C 120.019531 121.039062 120.957031 122.015625 121.59375 123.027344 C 122.234375 124.042969 122.574219 125.097656 122.625 126.066406 C 122.671875 127.039062 122.429688 127.929688 121.921875 128.722656 C 121.414062 129.519531 120.648438 130.214844 119.8125 130.644531 C 118.980469 131.074219 118.078125 131.234375 117.179688 131.144531 C 116.28125 131.058594 115.386719 130.71875 114.53125 130.148438 C 113.671875 129.578125 112.859375 128.773438 111.347656 127.449219 C 109.839844 126.125 107.636719 124.273438 105.355469 122.601562 C 103.074219 120.929688 100.714844 119.433594 98.648438 118.265625 C 96.582031 117.097656 94.808594 116.261719 93.574219 115.589844 C 92.339844 114.917969 91.644531 114.410156 91.113281 113.894531 C 90.585938 113.378906 90.222656 112.855469 90.027344 112.1875 C 89.832031 111.519531 89.800781 110.710938 89.949219 109.882812 C 90.101562 109.054688 90.4375 108.210938 91.066406 107.386719 Z M 149.496094 131.117188 C 149.011719 131.902344 148.257812 132.699219 146.953125 132.921875 C 145.652344 133.148438 143.792969 132.800781 141.476562 132.089844 C 139.160156 131.378906 136.386719 130.304688 134.144531 129.21875 C 131.90625 128.132812 130.195312 127.039062 128.496094 125.898438 C 126.796875 124.757812 125.105469 123.570312 123.800781 122.585938 C 122.496094 121.597656 121.574219 120.816406 120.914062 119.96875 C 120.253906 119.125 119.851562 118.21875 119.71875 117.359375 C 119.589844 116.5 119.726562 115.683594 120.105469 114.933594 C 120.484375 114.179688 121.101562 113.488281 121.804688 113.03125 C 122.507812 112.574219 123.296875 112.351562 124.105469 112.347656 C 124.910156 112.34375 125.738281 112.5625 126.554688 112.996094 C 127.367188 113.425781 128.164062 114.066406 129.628906 115.109375 C 131.089844 116.148438 133.21875 117.59375 135.398438 118.875 C 137.582031 120.15625 139.816406 121.273438 141.761719 122.125 C 143.707031 122.976562 145.359375 123.558594 146.519531 124.046875 C 147.679688 124.53125 148.34375 124.921875 148.863281 125.332031 C 149.378906 125.742188 149.746094 126.175781 149.984375 126.75 C 150.21875 127.328125 150.320312 128.046875 150.261719 128.796875 C 150.203125 129.546875 149.980469 130.328125 149.496094 131.117188 Z M 180.140625 143.402344 C 179.386719 144.074219 178.351562 144.671875 176.917969 144.5 C 175.484375 144.324219 173.648438 143.382812 171.445312 141.917969 C 169.246094 140.449219 166.683594 138.457031 164.679688 136.621094 C 162.675781 134.785156 161.230469 133.105469 159.808594 131.382812 C 158.386719 129.65625 156.988281 127.886719 155.929688 126.445312 C 154.871094 125.007812 154.15625 123.898438 153.726562 122.808594 C 153.300781 121.71875 153.167969 120.644531 153.296875 119.703125 C 153.429688 118.765625 153.828125 117.953125 154.457031 117.285156 C 155.089844 116.617188 155.953125 116.089844 156.832031 115.832031 C 157.710938 115.570312 158.605469 115.582031 159.449219 115.832031 C 160.292969 116.082031 161.09375 116.570312 161.808594 117.273438 C 162.523438 117.980469 163.160156 118.898438 164.363281 120.449219 C 165.566406 121.996094 167.339844 124.171875 169.222656 126.191406 C 171.101562 128.214844 173.09375 130.082031 174.859375 131.582031 C 176.628906 133.078125 178.175781 134.207031 179.238281 135.078125 C 180.296875 135.949219 180.875 136.5625 181.285156 137.15625 C 181.699219 137.746094 181.949219 138.316406 182.015625 138.992188 C 182.082031 139.667969 181.960938 140.449219 181.667969 141.214844 C 181.371094 141.980469 180.894531 142.730469 180.140625 143.402344 Z M 139.449219 88.609375 C 138.925781 89.460938 138.113281 90.316406 136.707031 90.558594 C 135.296875 90.804688 133.289062 90.429688 130.785156 89.664062 C 128.285156 88.894531 125.289062 87.730469 122.871094 86.558594 C 120.449219 85.386719 118.605469 84.207031 116.769531 82.972656 C 114.933594 81.742188 113.105469 80.460938 111.695312 79.394531 C 110.285156 78.332031 109.289062 77.484375 108.578125 76.570312 C 107.863281 75.65625 107.433594 74.679688 107.289062 73.75 C 107.148438 72.820312 107.296875 71.941406 107.703125 71.128906 C 108.113281 70.316406 108.78125 69.570312 109.542969 69.078125 C 110.300781 68.582031 111.152344 68.339844 112.023438 68.335938 C 112.894531 68.335938 113.789062 68.570312 114.667969 69.035156 C 115.546875 69.5 116.410156 70.191406 117.992188 71.320312 C 119.570312 72.445312 121.867188 74.003906 124.222656 75.390625 C 126.578125 76.773438 128.996094 77.980469 131.09375 78.898438 C 133.195312 79.816406 134.980469 80.449219 136.234375 80.972656 C 137.488281 81.496094 138.207031 81.917969 138.765625 82.359375 C 139.324219 82.804688 139.722656 83.273438 139.976562 83.894531 C 140.230469 84.515625 140.339844 85.292969 140.277344 86.101562 C 140.210938 86.914062 139.972656 87.757812 139.449219 88.609375 Z M 125.089844 67.363281 C 125.378906 66.402344 125.941406 65.367188 127.238281 64.769531 C 128.539062 64.171875 130.574219 64.015625 133.191406 64.113281 C 135.804688 64.210938 138.996094 64.5625 141.636719 65.070312 C 144.277344 65.582031 146.367188 66.246094 148.457031 66.964844 C 150.546875 67.683594 152.644531 68.449219 154.28125 69.117188 C 155.917969 69.78125 157.097656 70.34375 158.023438 71.042969 C 158.945312 71.738281 159.617188 72.574219 159.992188 73.433594 C 160.371094 74.296875 160.453125 75.183594 160.265625 76.074219 C 160.082031 76.964844 159.625 77.859375 159.019531 78.53125 C 158.414062 79.203125 157.652344 79.65625 156.8125 79.886719 C 155.96875 80.113281 155.046875 80.113281 154.078125 79.890625 C 153.109375 79.667969 152.097656 79.222656 150.277344 78.539062 C 148.464844 77.859375 145.839844 76.945312 143.207031 76.214844 C 140.574219 75.484375 137.929688 74.9375 135.664062 74.59375 C 133.398438 74.246094 131.511719 74.097656 130.164062 73.914062 C 128.820312 73.726562 128.015625 73.507812 127.363281 73.222656 C 126.707031 72.9375 126.203125 72.585938 125.796875 72.050781 C 125.390625 71.515625 125.085938 70.796875 124.9375 69.996094 C 124.792969 69.195312 124.804688 68.320312 125.089844 67.363281 Z M 174.386719 95.773438 C 173.664062 95.746094 172.855469 95.503906 172.1875 94.980469 C 171.519531 94.453125 170.988281 93.644531 170.78125 92.628906 C 170.570312 91.617188 170.6875 90.398438 170.738281 88.933594 C 170.792969 87.464844 170.785156 85.75 170.507812 83.953125 C 170.234375 82.15625 169.691406 80.28125 168.953125 78.679688 C 168.214844 77.078125 167.285156 75.753906 166.34375 74.527344 C 165.398438 73.300781 164.449219 72.171875 163.890625 71.203125 C 163.335938 70.234375 163.175781 69.429688 163.347656 68.785156 C 163.515625 68.140625 164.011719 67.660156 164.640625 67.230469 C 165.273438 66.800781 166.035156 66.421875 166.859375 66.332031 C 167.683594 66.242188 168.566406 66.441406 169.699219 67.207031 C 170.828125 67.972656 172.207031 69.308594 173.390625 70.785156 C 174.574219 72.261719 175.566406 73.882812 176.355469 75.632812 C 177.148438 77.382812 177.738281 79.261719 178.117188 81.199219 C 178.5 83.132812 178.667969 85.125 178.632812 87.140625 C 178.597656 89.160156 178.351562 91.203125 177.941406 92.589844 C 177.53125 93.972656 176.953125 94.699219 176.347656 95.15625 C 175.742188 95.613281 175.105469 95.800781 174.386719 95.773438 Z M 176.652344 115.917969 C 177.199219 115.40625 177.96875 114.984375 178.847656 114.875 C 179.726562 114.765625 180.714844 114.96875 181.617188 115.554688 C 182.515625 116.144531 183.335938 117.121094 184.378906 118.234375 C 185.425781 119.347656 186.699219 120.597656 188.226562 121.710938 C 189.757812 122.820312 191.542969 123.792969 193.265625 124.421875 C 194.992188 125.050781 196.652344 125.332031 198.25 125.53125 C 199.84375 125.734375 201.375 125.855469 202.5 126.152344 C 203.621094 126.453125 204.332031 126.925781 204.6875 127.523438 C 205.039062 128.117188 205.03125 128.839844 204.886719 129.617188 C 204.742188 130.398438 204.460938 131.238281 203.925781 131.914062 C 203.386719 132.589844 202.59375 133.097656 201.199219 133.371094 C 199.808594 133.648438 197.8125 133.6875 195.851562 133.480469 C 193.894531 133.273438 191.96875 132.820312 190.097656 132.125 C 188.226562 131.425781 186.402344 130.488281 184.695312 129.351562 C 182.984375 128.214844 181.386719 126.882812 179.921875 125.378906 C 178.457031 123.875 177.125 122.199219 176.402344 120.878906 C 175.679688 119.5625 175.566406 118.605469 175.671875 117.820312 C 175.777344 117.039062 176.105469 116.433594 176.652344 115.917969 Z M 176.652344 115.917969 "/><g clip-rule="nonzero" clip-path="url(#340dbd6300)"><path style=" stroke:none;fill-rule:evenodd;fill:#d89242;fill-opacity:1;" d="M 52.191406 155.910156 C 62.191406 184.265625 72.191406 212.617188 77.273438 226.980469 C 82.355469 241.347656 82.519531 241.722656 82.9375 242.34375 C 83.355469 242.960938 84.023438 243.824219 85.203125 244.84375 C 86.378906 245.867188 88.058594 247.054688 90.398438 248.265625 C 92.738281 249.472656 95.734375 250.710938 99.367188 251.84375 C 102.996094 252.980469 107.261719 254.015625 111.828125 254.851562 C 116.394531 255.683594 121.261719 256.308594 126.992188 256.71875 C 132.722656 257.125 139.320312 257.316406 144.746094 257.285156 C 150.175781 257.253906 154.433594 257.007812 158.855469 256.566406 C 163.277344 256.121094 167.855469 255.484375 172.613281 254.5 C 177.367188 253.515625 182.300781 252.1875 185.878906 251.007812 C 189.457031 249.828125 191.679688 248.800781 193.695312 247.550781 C 195.710938 246.300781 197.515625 244.828125 198.667969 243.582031 C 199.816406 242.335938 200.316406 241.324219 205.542969 226.628906 C 210.773438 211.9375 220.734375 183.566406 225.714844 169.382812 C 230.695312 155.199219 230.695312 155.199219 230.414062 155.644531 C 230.132812 156.089844 229.574219 156.984375 228.449219 157.757812 C 227.320312 158.53125 225.628906 159.183594 224.1875 160.019531 C 222.742188 160.855469 221.554688 161.871094 220.378906 163.335938 C 219.207031 164.800781 218.054688 166.71875 217.007812 168.21875 C 215.960938 169.722656 215.019531 170.808594 214.058594 171.660156 C 213.097656 172.511719 212.117188 173.128906 211.09375 173.433594 C 210.070312 173.734375 209.007812 173.722656 207.101562 173.113281 C 205.199219 172.503906 202.453125 171.300781 200.140625 171.054688 C 197.828125 170.8125 195.941406 171.523438 194.132812 172.644531 C 192.324219 173.765625 190.589844 175.292969 188.71875 176.488281 C 186.847656 177.679688 184.84375 178.535156 182.539062 178.488281 C 180.238281 178.441406 177.636719 177.496094 175.664062 176.648438 C 173.691406 175.800781 172.347656 175.050781 170.28125 175.175781 C 168.21875 175.296875 165.4375 176.292969 162.75 177.429688 C 160.0625 178.566406 157.46875 179.84375 155.214844 180.191406 C 152.957031 180.539062 151.039062 179.957031 149.21875 179.074219 C 147.394531 178.191406 145.675781 177.003906 144.375 176.523438 C 143.078125 176.039062 142.203125 176.261719 140.410156 176.894531 C 138.617188 177.53125 135.90625 178.574219 133.671875 179.34375 C 131.4375 180.117188 129.675781 180.617188 127.875 180.609375 C 126.074219 180.605469 124.234375 180.089844 122.433594 179.207031 C 120.636719 178.320312 118.878906 177.066406 117.113281 176.1875 C 115.347656 175.308594 113.570312 174.804688 111.75 174.875 C 109.933594 174.949219 108.074219 175.59375 106.226562 176.449219 C 104.382812 177.308594 102.550781 178.378906 101.007812 178.75 C 99.460938 179.121094 98.199219 178.792969 96.464844 177.9375 C 94.734375 177.082031 92.527344 175.699219 90.90625 174.683594 C 89.285156 173.667969 88.25 173.019531 87.210938 172.332031 C 86.171875 171.644531 85.128906 170.914062 83.785156 170.6875 C 82.441406 170.457031 80.792969 170.730469 78.953125 171.367188 C 77.113281 172 75.078125 173 73.625 173.339844 C 72.175781 173.675781 71.304688 173.355469 69.871094 172.109375 C 68.4375 170.863281 66.4375 168.691406 64.902344 166.777344 C 63.363281 164.859375 62.289062 163.195312 60.933594 161.871094 C 59.578125 160.542969 57.941406 159.554688 56.4375 158.617188 C 54.933594 157.679688 53.5625 156.796875 52.191406 155.910156 Z M 52.191406 155.910156 "/></g><g clip-rule="nonzero" clip-path="url(#042ca80400)"><path style=" stroke:none;fill-rule:evenodd;fill:#974000;fill-opacity:1;" d="M 52.085938 155.558594 C 52.195312 154.816406 52.304688 154.070312 52.59375 153.464844 C 52.882812 152.859375 53.351562 152.394531 54.429688 151.722656 C 55.511719 151.050781 57.207031 150.171875 58.515625 149.375 C 59.007812 149.078125 59.441406 148.789062 60.28125 148.304688 C 60.316406 153.1875 60.78125 157.96875 61.636719 162.609375 L 61.640625 162.617188 C 61.410156 162.355469 61.175781 162.109375 60.933594 161.871094 C 59.578125 160.542969 57.941406 159.554688 56.4375 158.617188 L 56.371094 158.574219 L 56.367188 158.574219 L 56.300781 158.53125 L 56.296875 158.527344 L 56.234375 158.492188 L 56.226562 158.484375 L 56.167969 158.449219 L 56.15625 158.441406 L 56.101562 158.40625 L 56.085938 158.398438 L 56.035156 158.367188 L 56.015625 158.355469 L 55.96875 158.324219 L 55.949219 158.3125 L 55.902344 158.285156 L 55.878906 158.265625 L 55.839844 158.242188 L 55.808594 158.222656 L 55.773438 158.199219 L 55.742188 158.179688 L 55.707031 158.160156 L 55.671875 158.136719 L 55.640625 158.117188 L 55.601562 158.09375 L 55.578125 158.078125 L 55.535156 158.050781 L 55.511719 158.035156 L 55.46875 158.007812 L 55.445312 157.996094 L 55.398438 157.964844 L 55.382812 157.953125 L 55.332031 157.921875 L 55.316406 157.914062 L 55.261719 157.878906 L 55.253906 157.871094 L 55.195312 157.835938 L 55.1875 157.832031 L 55.128906 157.792969 L 55.125 157.792969 L 55.0625 157.75 L 55.058594 157.75 L 54.996094 157.710938 L 54.992188 157.710938 L 54.929688 157.667969 L 54.925781 157.667969 L 54.867188 157.628906 L 54.859375 157.625 L 54.804688 157.589844 L 54.792969 157.582031 L 54.742188 157.546875 L 54.726562 157.539062 L 54.675781 157.507812 L 54.660156 157.496094 L 54.613281 157.46875 L 54.59375 157.453125 L 54.550781 157.425781 L 54.527344 157.414062 L 54.488281 157.386719 L 54.460938 157.371094 L 54.425781 157.347656 L 54.394531 157.328125 L 54.359375 157.304688 L 54.296875 157.265625 L 54.261719 157.242188 L 54.234375 157.226562 L 54.199219 157.203125 L 54.171875 157.1875 L 54.132812 157.160156 L 54.109375 157.144531 L 54.066406 157.117188 L 54.046875 157.105469 L 54 157.074219 L 53.984375 157.066406 L 53.933594 157.035156 L 53.804688 156.949219 L 53.796875 156.945312 L 53.738281 156.910156 L 53.734375 156.90625 L 53.675781 156.867188 L 53.613281 156.828125 L 53.609375 156.824219 L 53.550781 156.789062 L 53.542969 156.785156 L 53.488281 156.746094 L 53.480469 156.742188 L 53.425781 156.707031 L 53.414062 156.699219 L 53.363281 156.667969 L 53.351562 156.660156 L 53.300781 156.628906 L 53.285156 156.617188 L 53.242188 156.589844 L 53.21875 156.574219 L 53.179688 156.550781 L 53.15625 156.535156 L 53.117188 156.507812 L 53.089844 156.492188 L 53.054688 156.46875 L 53.027344 156.449219 L 52.996094 156.429688 L 52.960938 156.410156 L 52.933594 156.390625 L 52.898438 156.367188 L 52.871094 156.351562 L 52.832031 156.328125 L 52.808594 156.3125 L 52.769531 156.285156 L 52.75 156.273438 L 52.703125 156.242188 L 52.6875 156.230469 L 52.640625 156.203125 L 52.625 156.191406 L 52.574219 156.160156 L 52.566406 156.152344 L 52.511719 156.117188 L 52.503906 156.113281 L 52.449219 156.078125 L 52.441406 156.074219 L 52.382812 156.035156 L 52.378906 156.035156 Z M 223.394531 148.417969 C 225.839844 149.90625 226.746094 150.265625 227.476562 150.679688 C 228.53125 151.28125 229.226562 152.011719 229.671875 152.839844 C 230.117188 153.667969 230.3125 154.597656 230.511719 155.523438 L 230.507812 155.523438 C 230.507812 155.523438 230.507812 155.519531 230.507812 155.519531 C 230.503906 155.519531 230.503906 155.519531 230.503906 155.519531 L 230.5 155.519531 L 230.5 155.523438 L 230.496094 155.523438 L 230.496094 155.527344 L 230.492188 155.527344 L 230.492188 155.53125 L 230.488281 155.53125 L 230.488281 155.535156 L 230.480469 155.542969 L 230.480469 155.546875 L 230.476562 155.546875 L 230.476562 155.550781 L 230.472656 155.550781 L 230.472656 155.554688 L 230.46875 155.558594 L 230.46875 155.5625 L 230.464844 155.5625 L 230.464844 155.566406 L 230.457031 155.574219 L 230.457031 155.578125 L 230.453125 155.582031 L 230.453125 155.585938 L 230.449219 155.585938 L 230.449219 155.589844 L 230.445312 155.59375 L 230.445312 155.597656 L 230.441406 155.597656 L 230.441406 155.605469 L 230.4375 155.605469 L 230.4375 155.609375 L 230.433594 155.613281 L 230.433594 155.617188 L 230.429688 155.621094 L 230.425781 155.621094 L 230.425781 155.625 L 230.421875 155.628906 L 230.421875 155.632812 L 230.417969 155.636719 L 230.417969 155.640625 L 230.414062 155.644531 C 230.132812 156.089844 229.574219 156.984375 228.449219 157.757812 C 227.320312 158.53125 225.628906 159.183594 224.1875 160.019531 C 223.492188 160.421875 222.859375 160.863281 222.257812 161.375 C 222.96875 157.15625 223.359375 152.832031 223.394531 148.417969 Z M 221.546875 162.027344 C 221.515625 162.0625 221.484375 162.09375 221.449219 162.128906 C 221.484375 162.09375 221.515625 162.0625 221.546875 162.027344 Z M 209.199219 173.597656 C 208.726562 175.726562 208.066406 178.699219 207.136719 182.871094 C 203.886719 197.417969 197.300781 226.515625 194.011719 241.0625 C 193.332031 244.058594 192.796875 246.433594 192.375 248.320312 C 192.832031 248.070312 193.269531 247.816406 193.695312 247.550781 C 195.191406 246.621094 196.570312 245.574219 197.652344 244.582031 C 198.027344 242.980469 198.46875 241.089844 198.988281 238.855469 C 202.382812 224.296875 209.171875 195.175781 212.566406 180.617188 C 213.601562 176.175781 214.320312 173.09375 214.804688 170.949219 C 214.554688 171.203125 214.308594 171.4375 214.058594 171.660156 C 213.097656 172.511719 212.117188 173.128906 211.09375 173.433594 C 210.523438 173.601562 209.9375 173.671875 209.199219 173.597656 Z M 84.148438 243.84375 C 84.445312 244.15625 84.792969 244.492188 85.203125 244.84375 C 86.378906 245.867188 88.058594 247.054688 90.398438 248.265625 C 91.484375 248.824219 92.714844 249.394531 94.082031 249.953125 C 93.707031 247.9375 93.21875 245.433594 92.597656 242.316406 C 89.703125 227.769531 83.96875 199.921875 78.148438 171.660156 C 76.539062 172.273438 74.871094 173.046875 73.625 173.339844 C 72.175781 173.675781 71.304688 173.355469 69.871094 172.109375 C 69.066406 171.410156 68.085938 170.421875 67.105469 169.347656 C 66.546875 169.910156 66.09375 170.578125 65.636719 171.246094 C 72.914062 199.773438 80.1875 228.300781 83.824219 242.566406 Z M 106.921875 253.851562 C 108.503906 254.207031 110.148438 254.542969 111.828125 254.851562 C 113.746094 255.199219 115.71875 255.511719 117.789062 255.789062 C 117.671875 254.765625 117.546875 253.664062 117.414062 252.476562 C 115.550781 235.929688 111.820312 202.839844 109.53125 186.414062 C 108.851562 181.546875 108.300781 178.144531 107.804688 175.777344 C 107.277344 175.980469 106.75 176.207031 106.226562 176.449219 C 104.382812 177.308594 102.550781 178.378906 101.007812 178.75 C 99.460938 179.121094 98.199219 178.792969 96.464844 177.9375 C 96.214844 177.8125 95.949219 177.675781 95.679688 177.53125 C 95.804688 180.085938 96.34375 184.277344 97.375 191.40625 C 99.691406 207.414062 104.488281 238.21875 106.886719 253.621094 Z M 127.601562 256.761719 C 131.078125 256.996094 134.835938 257.152344 138.445312 257.230469 C 138.4375 255.308594 138.410156 252.890625 138.378906 249.839844 C 138.214844 235.050781 137.890625 205.464844 137.726562 190.671875 C 137.648438 183.578125 137.609375 179.890625 137.371094 178.007812 C 136.140625 178.460938 134.839844 178.941406 133.671875 179.34375 C 131.4375 180.117188 129.675781 180.617188 127.875 180.609375 C 126.886719 180.605469 125.890625 180.453125 124.894531 180.164062 C 124.351562 182.078125 124.210938 185.820312 124.417969 193.511719 C 124.804688 207.984375 126.429688 236.429688 127.242188 250.652344 C 127.382812 253.082031 127.496094 255.09375 127.601562 256.761719 Z M 147.9375 257.238281 C 151.921875 257.144531 155.339844 256.917969 158.855469 256.566406 C 159.777344 256.472656 160.707031 256.371094 161.644531 256.261719 C 161.785156 254.277344 161.9375 251.769531 162.128906 248.589844 C 163.042969 233.519531 164.867188 203.382812 165.777344 188.3125 C 166.171875 181.789062 166.398438 178.089844 166.320312 176.0625 C 165.15625 176.449219 163.945312 176.925781 162.75 177.429688 C 160.0625 178.566406 157.46875 179.84375 155.214844 180.191406 C 153.992188 180.378906 152.867188 180.296875 151.800781 180.039062 C 151.390625 181.929688 151.226562 185.542969 150.886719 192.867188 C 150.222656 207.316406 148.894531 236.21875 148.226562 250.667969 C 148.105469 253.316406 148.007812 255.476562 147.9375 257.238281 Z M 172.867188 254.445312 C 177.542969 253.46875 182.363281 252.164062 185.878906 251.007812 C 186.039062 250.953125 186.199219 250.902344 186.355469 250.847656 C 186.601562 248.996094 186.882812 246.726562 187.226562 243.945312 C 189.097656 228.867188 192.839844 198.710938 194.710938 183.632812 C 195.492188 177.355469 195.945312 173.695312 196.03125 171.660156 C 195.378906 171.925781 194.753906 172.261719 194.132812 172.644531 C 192.324219 173.765625 190.589844 175.292969 188.71875 176.488281 C 186.847656 177.679688 184.84375 178.535156 182.539062 178.488281 C 182.316406 178.484375 182.089844 178.46875 181.859375 178.449219 C 181.296875 180.320312 180.894531 183.855469 180.03125 191.417969 C 178.414062 205.621094 175.179688 234.03125 173.5625 248.234375 C 173.28125 250.714844 173.046875 252.757812 172.867188 254.445312 Z M 172.867188 254.445312 "/></g><g clip-rule="nonzero" clip-path="url(#f52f58ee14)"><path style=" stroke:none;fill-rule:nonzero;fill:#d89242;fill-opacity:1;" d="M 192.730469 79.207031 C 192.671875 80.128906 192.324219 80.96875 191.34375 81.257812 C 190.363281 81.542969 189.585938 81.113281 188.863281 80.476562 C 188.429688 80.128906 187.96875 79.753906 187.449219 79.554688 C 181.332031 77.1875 175.15625 74.878906 169.035156 72.484375 C 168.027344 72.078125 167.132812 71.644531 166.265625 72.683594 C 166.121094 72.859375 165.804688 72.945312 165.574219 73.03125 C 159.082031 76.03125 152.269531 77.707031 145.140625 78.195312 C 135.503906 78.859375 126.09375 77.621094 117.03125 74.1875 C 115.847656 73.753906 114.8125 73.722656 113.628906 74.128906 C 107.394531 76.320312 101.160156 78.484375 94.898438 80.621094 C 91.78125 81.6875 89.730469 80.1875 90.136719 76.957031 C 90.597656 73.175781 91.03125 69.367188 91.953125 65.703125 C 94.695312 54.648438 100.46875 45.585938 109.875 38.976562 C 118.070312 33.234375 127.335938 30.40625 137.175781 29.253906 C 145.257812 28.300781 153.164062 29.164062 160.925781 31.417969 C 169.125 33.785156 176.28125 37.882812 181.820312 44.488281 C 189.382812 53.523438 192.414062 64.171875 192.671875 75.742188 C 192.757812 76.925781 192.816406 78.054688 192.730469 79.207031 Z M 153.136719 44.460938 C 152.761719 42.210938 151.519531 40.507812 149.558594 39.351562 C 145.285156 36.871094 140.753906 36.351562 136.167969 38.285156 C 131.636719 40.21875 129.296875 45.671875 130.597656 50.867188 C 131.433594 54.332031 133.480469 57.015625 136.398438 58.917969 C 138.332031 60.1875 140.695312 60.363281 143.003906 60.277344 C 145.488281 60.1875 147.855469 59.527344 150.164062 58.542969 C 152.5 57.535156 153.539062 55.6875 153.886719 53.351562 C 154 52.542969 154 51.734375 154.058594 50.925781 C 154.117188 50.925781 154.144531 50.898438 154.203125 50.898438 C 153.828125 48.761719 153.480469 46.597656 153.136719 44.460938 Z M 160.261719 69.164062 C 150.769531 66.363281 141.128906 65.46875 131.316406 67.058594 C 128.171875 67.578125 125.085938 68.328125 122.167969 69.683594 C 134.953125 73.636719 147.625 72.828125 160.261719 69.164062 Z M 107.421875 51.792969 C 106.585938 53.207031 106.789062 54.878906 107.046875 56.464844 C 107.480469 59.007812 108.691406 61.199219 110.480469 63.046875 C 111.695312 64.289062 113.367188 64.488281 114.984375 64.632812 C 117.753906 64.835938 120.148438 63.882812 122.3125 62.210938 C 123.46875 61.316406 123.785156 60.015625 124.074219 58.71875 C 124.796875 55.515625 124.910156 52.367188 123.207031 49.425781 C 121.882812 47.117188 120.003906 45.558594 117.121094 45.757812 C 112.703125 45.875 109.585938 48.125 107.421875 51.792969 Z M 162.023438 62.527344 C 163.8125 64.691406 166.179688 65.066406 168.71875 64.980469 C 172.960938 64.835938 176.65625 61.226562 177.609375 56.582031 C 178.300781 53.089844 175.90625 48.414062 172.441406 46.769531 C 171.546875 46.367188 170.507812 46.078125 169.527344 46.078125 C 166.527344 46.078125 163.957031 47.230469 161.792969 49.28125 C 160.175781 50.808594 159.714844 52.742188 159.832031 54.246094 C 159.859375 57.648438 160.148438 60.277344 162.023438 62.527344 Z M 176.683594 67.316406 C 176.683594 68.386719 177.722656 69.367188 178.789062 69.335938 C 179.886719 69.308594 180.753906 68.414062 180.753906 67.316406 C 180.78125 66.164062 179.886719 65.269531 178.734375 65.269531 C 177.609375 65.269531 176.683594 66.191406 176.683594 67.316406 Z M 126.035156 44.519531 C 127.105469 44.519531 128 43.683594 128 42.644531 C 128 41.546875 127.046875 40.535156 125.980469 40.535156 C 124.882812 40.535156 124.015625 41.429688 124.015625 42.527344 C 124.046875 43.625 124.941406 44.488281 126.035156 44.519531 Z M 106.09375 65.324219 C 105.085938 65.269531 104.160156 66.164062 104.105469 67.203125 C 104.046875 68.296875 104.910156 69.222656 106.007812 69.222656 C 107.046875 69.222656 107.941406 68.386719 107.972656 67.316406 C 108 66.277344 107.132812 65.355469 106.09375 65.324219 Z M 158.359375 42.816406 C 158.359375 43.882812 159.222656 44.722656 160.292969 44.722656 C 161.300781 44.691406 162.140625 43.828125 162.140625 42.84375 C 162.140625 41.777344 161.246094 40.941406 160.207031 40.941406 C 159.167969 40.941406 158.359375 41.777344 158.359375 42.816406 Z M 158.359375 42.816406 "/></g><path style=" stroke:none;fill-rule:nonzero;fill:#d89242;fill-opacity:1;" d="M 193.828125 81.976562 C 194.171875 83.507812 194.578125 85.035156 194.863281 86.59375 C 195.382812 89.335938 195.761719 92.136719 195.125 94.90625 C 194.894531 95.886719 194.289062 96.78125 193.855469 97.707031 C 193.625 98.253906 193.421875 98.800781 193.191406 99.351562 C 193.335938 99.464844 193.480469 99.582031 193.625 99.667969 C 194.203125 99.234375 194.894531 98.859375 195.328125 98.3125 C 196.335938 97.042969 196.855469 95.453125 196.886719 93.867188 C 196.914062 90.519531 196.511719 87.171875 195.210938 84.054688 C 194.894531 83.304688 194.433594 82.582031 194.027344 81.863281 C 193.96875 81.921875 193.882812 81.949219 193.828125 81.976562 Z M 193.828125 81.976562 "/><path style=" stroke:none;fill-rule:nonzero;fill:#d89242;fill-opacity:1;" d="M 88.894531 81.285156 C 86.960938 85.554688 85.460938 90.144531 87.335938 95.109375 C 87.710938 96.089844 88.40625 96.957031 88.980469 97.851562 C 89.242188 98.226562 89.644531 98.570312 90.105469 98.109375 C 90.484375 97.734375 90.425781 97.359375 90.019531 96.957031 C 88.492188 95.425781 88.085938 93.375 88.144531 91.386719 C 88.230469 87.921875 88.636719 84.515625 88.894531 81.285156 Z M 88.894531 81.285156 "/><path style=" stroke:none;fill-rule:nonzero;fill:#d89242;fill-opacity:1;" d="M 89.011719 79.410156 C 86.242188 82.871094 83.730469 86.449219 83.09375 90.953125 C 82.980469 91.703125 83.125 92.511719 83.152344 93.261719 C 83.179688 93.925781 83.699219 94.214844 84.21875 94.128906 C 84.59375 94.070312 84.941406 93.609375 85.203125 93.289062 C 85.316406 93.144531 85.34375 92.828125 85.257812 92.625 C 84.683594 90.691406 85.171875 88.875 85.808594 87.085938 C 86.644531 84.75 87.683594 82.46875 88.636719 80.160156 C 88.78125 79.898438 88.894531 79.667969 89.011719 79.410156 Z M 89.011719 79.410156 "/><path style=" stroke:none;fill-rule:nonzero;fill:#d89242;fill-opacity:1;" d="M 194.257812 80.59375 C 195.382812 83.132812 196.597656 85.757812 197.695312 88.382812 C 198.445312 90.171875 198.589844 92.019531 197.980469 93.925781 C 197.894531 94.15625 197.808594 94.503906 197.925781 94.675781 C 198.242188 95.136719 198.675781 95.542969 199.050781 95.972656 C 199.367188 95.597656 200.003906 95.195312 199.972656 94.820312 C 199.914062 93.144531 199.914062 91.414062 199.484375 89.828125 C 198.617188 86.507812 196.941406 83.59375 194.664062 81.023438 C 194.546875 80.851562 194.402344 80.738281 194.257812 80.59375 C 194.230469 80.5625 194.144531 80.59375 194.257812 80.59375 Z M 194.257812 80.59375 "/><path style=" stroke:none;fill-rule:nonzero;fill:#d89242;fill-opacity:1;" d="M 89.761719 82.179688 C 89.558594 83.476562 89.183594 84.777344 89.15625 86.074219 C 89.125 88.152344 89.242188 90.230469 89.472656 92.28125 C 89.558594 93.058594 90.164062 93.808594 90.570312 94.53125 C 90.683594 94.734375 91.089844 94.964844 91.234375 94.90625 C 91.433594 94.847656 91.664062 94.503906 91.695312 94.242188 C 91.753906 93.953125 91.722656 93.550781 91.550781 93.320312 C 90.308594 91.585938 90.136719 89.566406 90.019531 87.546875 C 89.90625 85.785156 89.992188 83.996094 89.992188 82.238281 C 89.933594 82.207031 89.847656 82.179688 89.761719 82.179688 Z M 89.761719 82.179688 "/><path style=" stroke:none;fill-rule:nonzero;fill:#d89242;fill-opacity:1;" d="M 193.394531 84.171875 C 193.394531 86.074219 193.566406 88.210938 193.335938 90.316406 C 193.191406 91.703125 192.671875 93.117188 191.980469 94.328125 C 191.429688 95.308594 191.488281 95.886719 192.324219 96.492188 C 194.921875 93.753906 194.953125 87.488281 193.394531 84.171875 Z M 193.394531 84.171875 "/><path style=" stroke:none;fill-rule:nonzero;fill:#d89242;fill-opacity:1;" d="M 138.242188 57.734375 C 141.015625 59.785156 146.902344 59.496094 150.191406 57.1875 C 149.066406 56.292969 147.941406 55.425781 146.871094 54.53125 C 145.777344 53.609375 144.707031 52.6875 143.496094 51.617188 C 141.707031 53.636719 140.003906 55.660156 138.242188 57.734375 Z M 138.242188 57.734375 "/><path style=" stroke:none;fill-rule:nonzero;fill:#d89242;fill-opacity:1;" d="M 152.210938 45.269531 C 150.480469 46.25 148.835938 47.144531 147.191406 48.097656 C 147.015625 48.210938 146.84375 48.675781 146.929688 48.875 C 147.96875 51.503906 149.066406 54.101562 150.164062 56.726562 C 152.472656 55.109375 153.453125 49.367188 152.210938 45.269531 Z M 152.210938 45.269531 "/><path style=" stroke:none;fill-rule:nonzero;fill:#d89242;fill-opacity:1;" d="M 140.351562 38.976562 C 136.398438 38.6875 132.210938 42.554688 132.210938 46.394531 C 133.511719 46.335938 134.78125 46.25 136.078125 46.191406 C 138.90625 46.046875 138.90625 46.046875 139.484375 43.25 C 139.773438 41.863281 140.0625 40.449219 140.351562 38.976562 Z M 140.351562 38.976562 "/><path style=" stroke:none;fill-rule:nonzero;fill:#d89242;fill-opacity:1;" d="M 152.152344 44.835938 C 151.777344 44.230469 151.460938 43.539062 150.972656 42.988281 C 149.238281 40.96875 144.246094 38.863281 141.390625 38.976562 C 141.449219 39.265625 141.449219 39.527344 141.535156 39.785156 C 142.054688 41.199219 142.542969 42.613281 143.121094 43.96875 C 143.238281 44.257812 143.613281 44.664062 143.871094 44.691406 C 146.554688 44.863281 149.238281 44.980469 151.921875 45.097656 C 152.007812 45.039062 152.097656 44.953125 152.152344 44.835938 Z M 152.152344 44.835938 "/><path style=" stroke:none;fill-rule:nonzero;fill:#d89242;fill-opacity:1;" d="M 138.15625 57.851562 C 138.214844 56.582031 138.273438 55.339844 138.332031 54.128906 C 138.386719 52.859375 138.476562 51.589844 138.476562 50.320312 C 138.476562 50.058594 138.300781 49.65625 138.101562 49.570312 C 136.28125 48.761719 134.464844 48.039062 132.617188 47.261719 C 132.53125 47.230469 132.445312 47.261719 132.328125 47.261719 C 131.894531 50.40625 135.128906 56.351562 138.15625 57.851562 Z M 138.15625 57.851562 "/><path style=" stroke:none;fill-rule:nonzero;fill:#d89242;fill-opacity:1;" d="M 121.273438 60.277344 C 119.6875 59.496094 118.101562 58.6875 116.484375 57.9375 C 116.339844 57.878906 115.9375 58.023438 115.878906 58.167969 C 115.097656 59.640625 114.378906 61.171875 113.65625 62.671875 C 116.167969 63.769531 119.832031 62.613281 121.273438 60.277344 Z M 121.273438 60.277344 "/><path style=" stroke:none;fill-rule:nonzero;fill:#d89242;fill-opacity:1;" d="M 113.742188 48.386719 C 111.261719 49.078125 107.828125 52.570312 108.664062 55.714844 C 110.28125 54.878906 111.894531 54.042969 113.453125 53.175781 C 113.597656 53.089844 113.714844 52.859375 113.714844 52.6875 C 113.742188 51.300781 113.742188 49.914062 113.742188 48.386719 Z M 113.742188 48.386719 "/><path style=" stroke:none;fill-rule:nonzero;fill:#d89242;fill-opacity:1;" d="M 121.792969 50.40625 C 120.753906 47.722656 116.859375 46.511719 114.117188 48.097656 C 115.070312 49.28125 116.023438 50.464844 116.976562 51.648438 C 117.0625 51.734375 117.292969 51.761719 117.40625 51.703125 C 118.878906 51.300781 120.324219 50.839844 121.792969 50.40625 Z M 121.792969 50.40625 "/><path style=" stroke:none;fill-rule:nonzero;fill:#d89242;fill-opacity:1;" d="M 121.738281 59.699219 C 123.179688 56.667969 122.949219 53.898438 121.765625 50.808594 C 121.015625 51.964844 120.496094 53.003906 119.773438 53.898438 C 118.878906 55.050781 118.851562 56.035156 119.859375 57.128906 C 120.523438 57.851562 121.015625 58.71875 121.738281 59.699219 Z M 121.738281 59.699219 "/><path style=" stroke:none;fill-rule:nonzero;fill:#d89242;fill-opacity:1;" d="M 113.222656 62.527344 C 113.109375 60.652344 112.992188 58.746094 112.820312 56.871094 C 112.789062 56.695312 112.414062 56.464844 112.183594 56.4375 C 111.320312 56.351562 110.425781 56.351562 109.558594 56.292969 C 108.921875 56.265625 108.691406 56.464844 108.835938 57.128906 C 109.355469 59.582031 111 61.199219 112.878906 62.585938 C 113.019531 62.585938 113.109375 62.554688 113.222656 62.527344 Z M 113.222656 62.527344 "/><path style=" stroke:none;fill-rule:nonzero;fill:#d89242;fill-opacity:1;" d="M 162.3125 51.070312 C 164.128906 51.703125 165.863281 52.339844 167.621094 52.917969 C 167.796875 52.972656 168.226562 52.714844 168.316406 52.542969 C 168.921875 50.808594 169.46875 49.050781 170.046875 47.289062 C 167.882812 46.566406 163.496094 48.730469 162.3125 51.070312 Z M 162.3125 51.070312 "/><path style=" stroke:none;fill-rule:nonzero;fill:#d89242;fill-opacity:1;" d="M 176.308594 54.070312 C 175.875 51.359375 173.105469 47.925781 171.113281 47.519531 C 171.113281 49.769531 171.113281 51.992188 171.113281 54.273438 C 171.488281 54.300781 171.691406 54.332031 171.863281 54.332031 C 173.308594 54.246094 174.78125 54.15625 176.308594 54.070312 Z M 176.308594 54.070312 "/><path style=" stroke:none;fill-rule:nonzero;fill:#d89242;fill-opacity:1;" d="M 176.25 54.5625 C 174.519531 55.6875 172.902344 56.726562 171.289062 57.824219 C 171.085938 57.96875 170.914062 58.371094 170.914062 58.628906 C 170.941406 59.902344 171.027344 61.140625 171.085938 62.410156 C 174.058594 61.863281 177.144531 57.214844 176.25 54.5625 Z M 176.25 54.5625 "/><path style=" stroke:none;fill-rule:nonzero;fill:#d89242;fill-opacity:1;" d="M 162.949219 60.621094 C 164.851562 63.421875 168.488281 64.574219 170.914062 62.324219 C 169.84375 61.226562 168.804688 60.132812 167.738281 59.0625 C 167.566406 58.917969 167.191406 58.832031 166.957031 58.917969 C 165.632812 59.4375 164.332031 60.015625 162.949219 60.621094 Z M 162.949219 60.621094 "/><path style=" stroke:none;fill-rule:nonzero;fill:#d89242;fill-opacity:1;" d="M 162.949219 60.1875 C 163.8125 58.832031 164.648438 57.503906 165.488281 56.148438 C 165.574219 56.003906 165.542969 55.660156 165.429688 55.542969 C 164.417969 54.246094 163.351562 52.972656 162.285156 51.648438 C 161.128906 53.582031 161.390625 58.863281 162.949219 60.1875 Z M 162.949219 60.1875 "/></g></svg>